<?xml version="1.0" encoding="UTF-8" standalone="no"?><!DOCTYPE svg PUBLIC "-//W3C//DTD SVG 1.1//EN" "http://www.w3.org/Graphics/SVG/1.1/DTD/svg11.dtd"><svg width="100%" height="100%" viewBox="0 0 2250 735" version="1.1" xmlns="http://www.w3.org/2000/svg" xmlns:xlink="http://www.w3.org/1999/xlink" xml:space="preserve" xmlns:serif="http://www.serif.com/" style="fill-rule:evenodd;clip-rule:evenodd;stroke-linejoin:round;stroke-miterlimit:2;"><rect x="0" y="0" width="2250" height="735" style="fill:#7c9abc;"/><rect x="45" y="45" width="2160" height="645" style="fill:#1e1e1c;"/><rect x="82.5" y="82.5" width="2085" height="570" style="fill:#7c9abc;"/><rect x="651.826" y="600.637" width="923" height="103.725" style="fill:#7c9abc;"/><path d="M1052.88,627.188l-65.921,0.127l0,-7.795l29.207,-0l-0,-19.077l-24.371,0l0,-7.795l24.243,0l0,-16.224l8.208,-0l0,16.097l23.798,0l-0,7.796l-23.798,-0l0,19.076l28.634,-0l-0,7.795Zm-67.384,11.661l-13.553,5.704l-0,45.948l-8.208,0l-0,-42.462l-19.153,8.302l-4.518,-6.971l23.671,-10.14l-0,-27.759l-12.09,-0c-1.612,5.831 -4.518,12.485 -8.717,19.963l-6.936,-4.246c7.042,-11.872 11.347,-24.864 12.917,-38.976l7.826,1.965c-0.806,5.027 -1.802,9.569 -2.99,13.625l9.862,0l0,-27.378l8.209,-0l-0,27.252l12.916,-0l0,7.795l-12.916,-0l-0,24.273l13.68,-5.704l0,8.809Zm67.766,11.028l-14.953,-0.127l-0,29.47c-0,7.436 -3.606,11.154 -10.817,11.154l-12.154,0l-3.499,-7.922l13.68,0c3.054,0 4.581,-1.436 4.581,-4.309l0,-28.266l-45.113,-0l-0,-7.795l44.986,-0l0,-11.788l8.208,-0l0,11.661l15.081,-0l-0,7.922Zm-36.46,18.823l-5.981,5.323c-5.812,-7.351 -12.238,-12.506 -19.28,-15.464l5.981,-5.196c6.321,2.45 12.747,7.562 19.28,15.337Z" style="fill:#1e1e1c;fill-rule:nonzero;"/><path d="M1177.72,678.143c0,8.154 -4.115,12.231 -12.344,12.231l-11.39,0l-3.881,-8.809l14.444,0c3.224,0 4.836,-1.479 4.836,-4.436l-0,-100.832l8.335,0l0,101.846Zm-42.059,-42.019c-0,7.563 -0.742,16.668 -2.227,27.315c-1.442,10.605 -3.563,17.408 -6.363,20.408c-2.757,3.042 -6.511,4.563 -11.262,4.563c-3.479,-0 -8.59,-0.866 -15.335,-2.599l-1.973,-8.936c7.296,2.197 12.557,3.296 15.78,3.296c2.588,-0 4.603,-0.782 6.045,-2.345c1.485,-1.563 2.927,-7.415 4.327,-17.555c1.442,-10.183 2.057,-15.633 1.845,-16.351l-26.851,-0c-2.164,19.097 -10.881,34.624 -26.152,46.581l-6.681,-6.211c8.272,-5.746 14.528,-13.055 18.77,-21.928c4.242,-8.873 6.469,-22.689 6.682,-41.448l-12.281,-0l0,-39.167l53.194,0l0,39.04l-32.323,0c0.127,1.226 0.19,2.725 0.19,4.5c0,3.845 -0.233,7.457 -0.699,10.837l35.314,0Zm-10.817,-23.132l0.127,-23.449l-36.778,-0l0,23.449l36.651,-0Zm31.497,51.525l-8.209,0.127l0,-75.925l8.209,-0l-0,75.798Z" style="fill:#1e1e1c;fill-rule:nonzero;"/><path d="M1308.79,623.766l-52.749,-0l0,21.928c0,17.999 -3.308,32.935 -9.926,44.807l-7.826,-4.436c6.193,-9.507 9.29,-22.816 9.29,-39.927l-0,-62.299c9.162,0.084 19.852,-0.655 32.069,-2.218c12.259,-1.564 22.016,-3.549 29.269,-5.958l4.073,7.606c-15.865,4.436 -34.89,6.992 -57.076,7.668l-0,6.908l52.876,0l0,25.921Zm-8.335,-7.795l-0,-10.331l-44.541,0l-0,10.331l44.541,-0Zm-54.849,32.638l-7.954,2.726c-0.212,-2.071 -0.763,-4.162 -1.654,-6.275l-9.926,0.634l-0,44.807l-8.209,0l0,-44.49l-17.752,0.887l-1.655,-7.668l6.236,-0.254c5.939,-7.013 10.541,-13.119 13.808,-18.316c-4.921,-4.605 -11.475,-8.851 -19.662,-12.738l4.709,-6.718l4.008,2.345c6.024,-9.084 10.754,-18.168 14.19,-27.252l7.826,3.613c-3.902,9.083 -9.056,18.252 -15.462,27.505c2.927,1.732 5.875,3.908 8.845,6.528c3.521,-5.113 7.338,-11.873 11.453,-20.281l7.572,3.93c-8.314,15.59 -17.562,29.427 -27.742,41.511l19.152,-0.761c-0.933,-3.126 -2.672,-6.675 -5.218,-10.647l7,-2.598c4.411,5.492 7.89,13.33 10.435,23.512Zm67.384,29.153c-0,3.719 -0.912,6.761 -2.736,9.127c-1.824,2.408 -4.476,3.612 -7.954,3.612l-7.317,0l-2.609,-7.922l7.317,0c3.648,0 5.472,-1.648 5.472,-4.943l0,-15.971l-7.317,-0l-0,16.921l-6.872,0l-0,-16.921l-7.445,-0l0,21.041l-6.872,-0l0,-21.041l-7.572,-0l0,28.963l-7.953,-0l-0,-58.813l51.858,-0l-0,45.947Zm-7.827,-23.322l0,-14.83l-7.444,-0l-0,14.83l7.444,-0Zm-14.316,-0l0.127,-14.83l-7.572,-0l-0,14.83l7.445,-0Zm-14.317,-0l0.127,-14.83l-7.699,-0l0,14.83l7.572,-0Zm-64.011,1.648c-0.34,7.816 -2.949,17.555 -7.827,29.216l-7.826,-3.232c4.496,-9.295 7.275,-18.548 8.335,-27.759l7.318,1.775Zm30.351,14.576l-7.445,2.028c-0.466,-4.478 -2.015,-9.971 -4.645,-16.477l7.127,-1.775c1.909,4.267 3.563,9.675 4.963,16.224Z" style="fill:#1e1e1c;fill-rule:nonzero;"/><path d="M211.724,410.958c7.059,-3.089 11.912,-7.501 15.883,-13.236c-22.501,1.765 -37.061,7.059 -41.914,12.353c-9.706,10.589 -19.854,33.531 -19.854,37.502c0,13.236 26.472,28.237 75.886,28.237c62.209,-0 117.799,-14.56 146.918,-31.766c23.825,-14.119 39.708,-48.532 39.708,-63.974c0,-22.501 -29.119,-48.973 -82.945,-66.179c-52.943,-16.766 -78.092,-18.531 -78.092,-32.208c0,-15.442 53.826,-48.09 132.359,-48.09c6.618,-0 11.471,0.441 15.883,0.441c-19.853,14.56 -31.325,22.06 -31.325,28.678c0,3.529 2.206,4.853 5.736,4.853c3.53,0 7.942,-3.971 18.089,-9.706c19.413,-10.589 34.855,-16.325 42.796,-20.736c14.56,-7.942 21.619,-24.707 21.619,-44.12c-0,-10.589 -24.266,-19.413 -65.739,-19.413c-67.503,0 -133.682,25.148 -156.624,46.326c-15.001,14.118 -23.384,40.149 -23.384,69.709c0,25.148 23.384,33.972 76.769,46.767c55.149,13.236 85.592,22.501 85.592,37.06c-0,9.265 -11.471,15.442 -33.09,22.942c-32.207,11.03 -68.827,17.207 -104.564,17.207c-11.03,0 -24.265,-0.882 -39.707,-2.647Z" style="fill:#1e1e1c;fill-rule:nonzero;"/><path d="M459.676,427.723c30.443,-47.649 59.562,-65.738 68.827,-65.738c2.206,0 3.088,2.206 3.088,6.177c0,10.147 -14.118,29.56 -41.031,59.561c-4.412,-1.323 -8.824,-2.206 -12.795,-2.206c-4.853,0 -10.589,1.324 -18.089,2.206Zm-23.383,37.943c5.294,1.324 9.706,2.206 14.118,2.206c3.971,0 9.265,-0.441 15.442,-1.765c7.941,5.736 20.295,9.707 34.413,9.707c23.383,-0 61.326,-24.707 109.858,-75.445l-0.441,-20.295c-36.178,35.737 -60.444,56.473 -83.386,56.473c-2.206,0 -5.295,-0.882 -10.148,-2.206c41.914,-37.943 61.326,-72.797 61.326,-97.945c0,-11.471 -4.853,-16.766 -15.441,-16.766c-10.148,0 -43.238,15.883 -81.622,53.385l22.501,-38.384c22.501,-38.384 43.237,-52.944 43.237,-65.738c0,-4.412 -5.294,-8.383 -13.235,-8.383c-14.119,-0 -26.472,9.265 -39.708,26.913c-21.619,28.678 -44.12,64.415 -80.739,98.387l0,19.853c17.648,-16.765 34.855,-33.53 49.855,-51.178l-32.207,63.091c-15.883,31.325 -24.266,39.707 -25.148,41.031c-21.619,29.119 -33.531,57.797 -33.531,90.886c-0,10.589 4.412,16.766 10.147,16.766c11.471,-0 27.796,-33.972 54.709,-100.593Z" style="fill:#1e1e1c;fill-rule:nonzero;"/><path d="M730.129,333.307c-48.972,63.091 -89.563,92.21 -99.71,92.21c-3.971,0 -7.059,-4.412 -7.059,-11.03c-0,-33.089 37.06,-51.62 106.769,-81.18Zm-33.531,72.356c-5.735,18.531 -10.147,31.325 -10.147,41.473c-0,15.001 10.589,25.148 22.942,25.148c20.295,0 45.885,-26.913 88.681,-73.238l-0.442,-18.09c-28.236,26.472 -46.325,41.032 -60.002,41.032c-7.501,-0 -11.913,-3.53 -11.913,-10.148c0,-22.942 32.208,-52.061 32.208,-63.973c-0,-2.206 -1.324,-4.853 -2.647,-7.942l-7.06,-15l7.501,-4.412c5.294,-3.089 7.5,-4.412 7.5,-7.501c0,-7.5 -10.147,-21.618 -19.854,-21.618c-3.529,-0 -19.854,2.647 -44.119,11.912c-26.031,9.706 -47.65,22.06 -67.503,38.384c-26.472,22.501 -41.032,45.002 -41.032,61.767c0,26.913 24.266,60.003 33.531,60.003c11.913,0 35.737,-19.412 72.356,-57.797Z" style="fill:#1e1e1c;fill-rule:nonzero;"/><path d="M776.896,418.017c11.912,-9.265 27.354,-26.031 48.532,-48.532c13.677,-1.764 27.795,-4.412 42.355,-7.941c-27.796,28.678 -42.796,51.179 -42.796,77.209c-0,19.854 13.235,32.649 26.913,32.649c17.647,-0 46.325,-24.707 89.562,-71.915l0,-18.531c-34.854,31.767 -55.149,48.973 -64.855,48.973c-7.06,0 -11.03,-4.412 -11.03,-12.794c-0,-8.383 8.824,-28.678 27.354,-48.091c10.588,-11.03 20.736,-16.765 20.736,-24.266c-0,-19.853 -7.942,-27.795 -21.619,-27.795c-3.97,0 -8.824,0.441 -14.559,0.882l-34.855,2.206c3.53,-6.176 4.854,-10.588 4.854,-11.912c-0,-3.088 -2.206,-5.735 -5.295,-5.735c-15.883,-0 -52.943,35.295 -52.943,59.12c-0,5.294 3.529,10.589 10.147,14.559l-28.236,27.796l5.735,14.118Z" style="fill:#1e1e1c;fill-rule:nonzero;"/><path d="M964.405,383.162c21.618,-41.472 57.355,-58.237 68.385,-58.237c2.206,-0 3.088,1.323 3.088,4.853c0,11.912 -24.265,31.766 -71.473,53.384Zm-1.765,17.648c67.062,-15.883 105.446,-56.473 105.446,-80.297c-0,-12.354 -9.707,-18.531 -30.002,-18.531c-26.03,0 -52.502,11.913 -77.65,35.737c-24.707,23.384 -37.502,48.973 -37.502,75.886c0,37.06 17.207,56.032 47.208,56.032c32.649,-0 66.18,-23.825 108.093,-69.709l0,-18.53c-37.06,35.737 -68.385,52.502 -88.239,52.502c-15.883,0 -27.354,-11.471 -27.354,-30.884l-0,-2.206Z" style="fill:#1e1e1c;fill-rule:nonzero;"/><path d="M1295.74,347.867l10.589,-15.883c22.059,-2.647 37.06,-6.618 45.002,-10.148c-5.736,-3.088 -14.56,-3.529 -26.472,-3.529c-2.647,-0 -6.618,0.441 -10.148,0.882l41.473,-58.238c7.941,-11.03 12.353,-20.295 13.677,-30.001c61.326,3.529 92.21,15.442 92.21,34.854c-0,13.677 -15.001,38.384 -41.472,57.797c-24.266,17.648 -55.591,27.354 -88.681,27.354c-11.471,0 -23.383,-0.882 -36.178,-3.088Zm-33.972,50.296c13.677,3.089 26.913,4.853 40.59,4.853c50.296,0 99.269,-15 134.565,-38.825c33.972,-22.942 52.061,-57.797 52.061,-101.475c-0,-60.885 -45.002,-93.975 -124.859,-93.975c-37.943,0 -81.621,7.942 -113.387,18.972c-12.354,3.97 -15.001,8.382 -20.295,15.883c-20.295,29.119 -30.001,49.414 -30.001,51.62c-0,3.088 0.441,5.294 2.206,5.294c8.382,-0 58.237,-25.148 146.036,-30.001c-33.973,38.384 -57.797,69.709 -73.239,92.21c-37.943,5.294 -60.003,22.501 -60.003,42.354c0,9.707 6.177,15.883 17.207,24.266c-29.56,45.443 -40.149,78.974 -40.149,86.916c0,9.265 4.412,14.559 10.589,14.559c9.706,0 17.206,-9.265 28.236,-26.471c7.942,-12.795 12.354,-21.178 12.354,-26.031c-0,-2.647 -0.883,-3.53 -3.089,-5.294l21.178,-34.855Z" style="fill:#1e1e1c;fill-rule:nonzero;"/><path d="M1608.11,333.307c-48.973,63.091 -89.563,92.21 -99.71,92.21c-3.971,0 -7.06,-4.412 -7.06,-11.03c0,-33.089 37.061,-51.62 106.77,-81.18Zm-33.531,72.356c-5.736,18.531 -10.148,31.325 -10.148,41.473c0,15.001 10.589,25.148 22.943,25.148c20.295,0 45.884,-26.913 88.68,-73.238l-0.441,-18.09c-28.237,26.472 -46.326,41.032 -60.003,41.032c-7.5,-0 -11.912,-3.53 -11.912,-10.148c-0,-22.942 32.207,-52.061 32.207,-63.973c0,-2.206 -1.323,-4.853 -2.647,-7.942l-7.059,-15l7.5,-4.412c5.295,-3.089 7.501,-4.412 7.501,-7.501c-0,-7.5 -10.148,-21.618 -19.854,-21.618c-3.53,-0 -19.854,2.647 -44.12,11.912c-26.03,9.706 -47.649,22.06 -67.503,38.384c-26.472,22.501 -41.031,45.002 -41.031,61.767c-0,26.913 24.266,60.003 33.531,60.003c11.912,0 35.737,-19.412 72.356,-57.797Z" style="fill:#1e1e1c;fill-rule:nonzero;"/><path d="M1654.88,418.017c11.912,-9.265 27.354,-26.031 48.531,-48.532c13.677,-1.764 27.796,-4.412 42.355,-7.941c-27.795,28.678 -42.796,51.179 -42.796,77.209c0,19.854 13.236,32.649 26.913,32.649c17.648,-0 46.326,-24.707 89.563,-71.915l-0,-18.531c-34.855,31.767 -55.15,48.973 -64.856,48.973c-7.059,0 -11.03,-4.412 -11.03,-12.794c0,-8.383 8.824,-28.678 27.354,-48.091c10.589,-11.03 20.737,-16.765 20.737,-24.266c-0,-19.853 -7.942,-27.795 -21.619,-27.795c-3.971,0 -8.824,0.441 -14.56,0.882l-34.854,2.206c3.53,-6.176 4.853,-10.588 4.853,-11.912c0,-3.088 -2.206,-5.735 -5.294,-5.735c-15.883,-0 -52.944,35.295 -52.944,59.12c0,5.294 3.53,10.589 10.148,14.559l-28.237,27.796l5.736,14.118Z" style="fill:#1e1e1c;fill-rule:nonzero;"/><path d="M1823.41,397.722c-10.589,19.413 -15.001,36.619 -15.001,49.855c0,16.766 9.265,26.472 25.589,26.472c22.06,-0 58.68,-24.266 105.005,-74.121l-0.441,-18.089c-39.267,35.296 -63.974,52.943 -75.886,52.943c-7.059,0 -11.03,-3.97 -11.03,-12.353c0,-19.854 11.03,-53.826 37.943,-87.357c3.089,0.441 7.059,0.441 12.795,0.441c10.589,0 16.324,-2.206 24.707,-9.706c17.648,-16.324 26.03,-33.09 26.03,-34.413c0,-3.971 -7.5,-7.059 -22.059,-7.942l17.647,-20.736c3.53,-3.971 5.295,-7.059 5.295,-11.03c-0,-3.088 -4.412,-6.177 -8.824,-6.177c-26.472,0 -32.649,12.354 -51.179,37.502c-21.177,-0 -35.296,2.206 -42.796,7.5c-11.03,7.942 -25.589,31.325 -25.589,36.178c-0,1.765 1.323,2.648 3.97,2.648l8.383,-0c6.618,-0 14.118,0.882 22.06,2.206c-15.001,19.412 -31.766,38.384 -49.855,57.796l0.441,17.648c3.971,-3.088 8.383,-6.177 12.795,-9.265Z" style="fill:#1e1e1c;fill-rule:nonzero;"/><path d="M1938.12,401.693c20.295,-18.972 40.149,-36.62 57.355,-55.15c3.53,12.795 5.295,23.825 5.295,33.531c-0,20.295 -7.942,32.649 -27.355,45.885c-10.147,-16.325 -19.412,-24.707 -31.766,-24.707c-0.882,-0 -2.206,0.441 -3.529,0.441Zm145.594,-19.854c-38.825,36.619 -67.503,54.708 -85.15,54.708c-3.971,0 -7.942,-0.882 -13.236,-2.206c30.883,-8.824 56.473,-44.561 56.473,-78.974c-0,-22.942 -7.942,-39.266 -7.942,-48.09c0,-1.765 0.883,-4.412 0.883,-7.501c-0,-4.853 -1.765,-7.059 -7.501,-7.059c-18.53,0 -26.03,7.059 -30.001,26.913c-10.589,13.236 -31.766,35.296 -63.973,67.062l-0,15.883c-9.266,3.971 -14.56,11.03 -14.56,20.295c0,22.942 30.001,48.973 57.356,48.973c26.471,-0 62.649,-23.825 108.093,-71.915l-0.442,-18.089Z" style="fill:#1e1e1c;fill-rule:nonzero;"/></svg>