<?xml version="1.0" encoding="UTF-8" standalone="no"?>
<!DOCTYPE svg PUBLIC "-//W3C//DTD SVG 1.1//EN" "http://www.w3.org/Graphics/SVG/1.1/DTD/svg11.dtd">
<svg width="100%" height="100%" viewBox="0 0 2250 735" version="1.1" xmlns="http://www.w3.org/2000/svg" xmlns:xlink="http://www.w3.org/1999/xlink" xml:space="preserve" xmlns:serif="http://www.serif.com/" style="fill-rule:evenodd;clip-rule:evenodd;stroke-linejoin:round;stroke-miterlimit:2;">
    <g transform="matrix(1,0,0,1,-150,-82.5)">
        <g transform="matrix(1.15264,0,0,2.47942,-14.1052,-1553.92)">
            <rect x="142.373" y="660" width="1952.03" height="296.441" style="fill:rgb(30,30,28);"/>
            <g transform="matrix(0.86462,0,0,0.393969,22.6083,402.085)">
                <rect x="183.671" y="700.725" width="2167.37" height="660.31" style="fill:rgb(235,235,235);"/>
            </g>
            <g transform="matrix(0.866429,0,0,0.381851,12.7428,410.869)">
                <rect x="232.223" y="739.567" width="2087.75" height="602.048" style="fill:rgb(30,30,28);"/>
            </g>
            <g transform="matrix(0.867571,0,0,0.403321,14.689,389.226)">
                <rect x="799" y="1272" width="923" height="103.725" style="fill:rgb(30,30,28);"/>
            </g>
            <g transform="matrix(0.655726,0,0,0.303623,463.548,699.888)">
                <g transform="matrix(172.414,0,0,172.414,741,775)">
                    <path d="M0.941,-0.425L0.435,-0.424L0.435,-0.484L0.659,-0.484L0.659,-0.631L0.472,-0.631L0.472,-0.691L0.658,-0.691L0.658,-0.816L0.721,-0.816L0.721,-0.692L0.904,-0.692L0.904,-0.632L0.721,-0.632L0.721,-0.485L0.941,-0.485L0.941,-0.425ZM0.424,-0.335L0.32,-0.291L0.32,0.063L0.257,0.063L0.257,-0.264L0.11,-0.2L0.075,-0.254L0.257,-0.332L0.257,-0.546L0.164,-0.546C0.152,-0.501 0.129,-0.45 0.097,-0.392L0.044,-0.425C0.098,-0.516 0.131,-0.616 0.143,-0.725L0.203,-0.71C0.197,-0.671 0.189,-0.636 0.18,-0.605L0.256,-0.605L0.256,-0.816L0.319,-0.816L0.319,-0.606L0.418,-0.606L0.418,-0.546L0.319,-0.546L0.319,-0.359L0.424,-0.403L0.424,-0.335ZM0.944,-0.25L0.829,-0.251L0.829,-0.024C0.829,0.033 0.801,0.062 0.746,0.062L0.653,0.062L0.626,0.001L0.731,0.001C0.754,0.001 0.766,-0.01 0.766,-0.032L0.766,-0.25L0.42,-0.25L0.42,-0.31L0.765,-0.31L0.765,-0.401L0.828,-0.401L0.828,-0.311L0.944,-0.311L0.944,-0.25ZM0.664,-0.105L0.618,-0.064C0.574,-0.121 0.524,-0.16 0.47,-0.183L0.516,-0.223C0.565,-0.204 0.614,-0.165 0.664,-0.105Z" style="fill:rgb(235,235,235);fill-rule:nonzero;"/>
                </g>
                <g transform="matrix(172.414,0,0,172.414,913.414,775)">
                    <path d="M0.899,-0.032C0.899,0.031 0.867,0.062 0.804,0.062L0.717,0.062L0.687,-0.006L0.798,-0.006C0.823,-0.006 0.835,-0.017 0.835,-0.04L0.835,-0.817L0.899,-0.817L0.899,-0.032ZM0.576,-0.356C0.576,-0.298 0.57,-0.228 0.559,-0.146C0.548,-0.064 0.532,-0.011 0.51,0.012C0.489,0.035 0.46,0.047 0.424,0.047C0.397,0.047 0.358,0.04 0.306,0.027L0.291,-0.042C0.347,-0.025 0.387,-0.017 0.412,-0.017C0.432,-0.017 0.447,-0.023 0.458,-0.035C0.47,-0.047 0.481,-0.092 0.492,-0.17C0.503,-0.248 0.507,-0.29 0.506,-0.296L0.3,-0.296C0.283,-0.149 0.216,-0.029 0.099,0.063L0.048,0.015C0.111,-0.029 0.159,-0.085 0.192,-0.154C0.224,-0.222 0.242,-0.329 0.243,-0.473L0.149,-0.473L0.149,-0.775L0.557,-0.775L0.557,-0.474L0.309,-0.474C0.31,-0.465 0.311,-0.453 0.311,-0.439C0.311,-0.41 0.309,-0.382 0.305,-0.356L0.576,-0.356ZM0.493,-0.534L0.494,-0.715L0.212,-0.715L0.212,-0.534L0.493,-0.534ZM0.735,-0.137L0.672,-0.136L0.672,-0.721L0.735,-0.721L0.735,-0.137Z" style="fill:rgb(235,235,235);fill-rule:nonzero;"/>
                </g>
                <g transform="matrix(172.414,0,0,172.414,1085.83,775)">
                    <path d="M0.905,-0.451L0.5,-0.451L0.5,-0.282C0.5,-0.144 0.475,-0.028 0.424,0.063L0.364,0.029C0.411,-0.044 0.435,-0.147 0.435,-0.279L0.435,-0.759C0.505,-0.758 0.587,-0.764 0.681,-0.776C0.775,-0.788 0.85,-0.803 0.906,-0.822L0.937,-0.763C0.815,-0.729 0.669,-0.709 0.499,-0.704L0.499,-0.651L0.905,-0.651L0.905,-0.451ZM0.841,-0.511L0.841,-0.591L0.499,-0.591L0.499,-0.511L0.841,-0.511ZM0.42,-0.26L0.359,-0.239C0.357,-0.255 0.353,-0.271 0.346,-0.287L0.27,-0.282L0.27,0.063L0.207,0.063L0.207,-0.28L0.071,-0.273L0.058,-0.332L0.106,-0.334C0.152,-0.388 0.187,-0.435 0.212,-0.475C0.174,-0.511 0.124,-0.543 0.061,-0.573L0.097,-0.625L0.128,-0.607C0.174,-0.677 0.21,-0.747 0.237,-0.817L0.297,-0.789C0.267,-0.719 0.227,-0.648 0.178,-0.577C0.201,-0.564 0.223,-0.547 0.246,-0.527C0.273,-0.566 0.302,-0.618 0.334,-0.683L0.392,-0.653C0.328,-0.533 0.257,-0.426 0.179,-0.333L0.326,-0.339C0.319,-0.363 0.306,-0.39 0.286,-0.421L0.34,-0.441C0.374,-0.399 0.4,-0.338 0.42,-0.26ZM0.937,-0.035C0.937,-0.007 0.93,0.017 0.916,0.035C0.902,0.054 0.882,0.063 0.855,0.063L0.799,0.063L0.779,0.002L0.835,0.002C0.863,0.002 0.877,-0.011 0.877,-0.036L0.877,-0.159L0.821,-0.159L0.821,-0.029L0.768,-0.029L0.768,-0.159L0.711,-0.159L0.711,0.003L0.658,0.003L0.658,-0.159L0.6,-0.159L0.6,0.064L0.539,0.064L0.539,-0.389L0.937,-0.389L0.937,-0.035ZM0.877,-0.215L0.877,-0.329L0.82,-0.329L0.82,-0.215L0.877,-0.215ZM0.767,-0.215L0.768,-0.329L0.71,-0.329L0.71,-0.215L0.767,-0.215ZM0.657,-0.215L0.658,-0.329L0.599,-0.329L0.599,-0.215L0.657,-0.215ZM0.166,-0.202C0.163,-0.142 0.143,-0.067 0.106,0.023L0.046,-0.002C0.08,-0.074 0.102,-0.145 0.11,-0.216L0.166,-0.202ZM0.399,-0.09L0.342,-0.074C0.338,-0.109 0.326,-0.151 0.306,-0.201L0.361,-0.215C0.375,-0.182 0.388,-0.14 0.399,-0.09Z" style="fill:rgb(235,235,235);fill-rule:nonzero;"/>
                </g>
            </g>
            <g transform="matrix(0.869443,0,0,0.404191,-0.0878015,404.772)">
                <g transform="matrix(440.246,0,0,440.246,290.593,1093.47)">
                    <path d="M0.192,-0.118C0.208,-0.125 0.219,-0.135 0.228,-0.148C0.177,-0.144 0.144,-0.132 0.133,-0.12C0.111,-0.096 0.088,-0.044 0.088,-0.035C0.088,-0.005 0.148,0.029 0.26,0.029C0.401,0.029 0.527,-0.004 0.593,-0.043C0.647,-0.075 0.683,-0.153 0.683,-0.188C0.683,-0.239 0.617,-0.299 0.495,-0.338C0.375,-0.376 0.318,-0.38 0.318,-0.411C0.318,-0.446 0.44,-0.52 0.618,-0.52C0.633,-0.52 0.644,-0.519 0.654,-0.519C0.609,-0.486 0.583,-0.469 0.583,-0.454C0.583,-0.446 0.588,-0.443 0.596,-0.443C0.604,-0.443 0.614,-0.452 0.637,-0.465C0.681,-0.489 0.716,-0.502 0.734,-0.512C0.767,-0.53 0.783,-0.568 0.783,-0.612C0.783,-0.636 0.728,-0.656 0.634,-0.656C0.481,-0.656 0.331,-0.599 0.279,-0.551C0.245,-0.519 0.226,-0.46 0.226,-0.393C0.226,-0.336 0.279,-0.316 0.4,-0.287C0.525,-0.257 0.594,-0.236 0.594,-0.203C0.594,-0.182 0.568,-0.168 0.519,-0.151C0.446,-0.126 0.363,-0.112 0.282,-0.112C0.257,-0.112 0.227,-0.114 0.192,-0.118Z" style="fill:rgb(235,235,235);fill-rule:nonzero;"/>
                </g>
                <g transform="matrix(440.246,0,0,440.246,573.671,1093.47)">
                    <path d="M0.111,-0.08C0.18,-0.188 0.246,-0.229 0.267,-0.229C0.272,-0.229 0.274,-0.224 0.274,-0.215C0.274,-0.192 0.242,-0.148 0.181,-0.08C0.171,-0.083 0.161,-0.085 0.152,-0.085C0.141,-0.085 0.128,-0.082 0.111,-0.08ZM0.058,0.006C0.07,0.009 0.08,0.011 0.09,0.011C0.099,0.011 0.111,0.01 0.125,0.007C0.143,0.02 0.171,0.029 0.203,0.029C0.256,0.029 0.342,-0.027 0.452,-0.142L0.451,-0.188C0.369,-0.107 0.314,-0.06 0.262,-0.06C0.257,-0.06 0.25,-0.062 0.239,-0.065C0.334,-0.151 0.378,-0.23 0.378,-0.287C0.378,-0.313 0.367,-0.325 0.343,-0.325C0.32,-0.325 0.245,-0.289 0.158,-0.204L0.209,-0.291C0.26,-0.378 0.307,-0.411 0.307,-0.44C0.307,-0.45 0.295,-0.459 0.277,-0.459C0.245,-0.459 0.217,-0.438 0.187,-0.398C0.138,-0.333 0.087,-0.252 0.004,-0.175L0.004,-0.13C0.044,-0.168 0.083,-0.206 0.117,-0.246L0.044,-0.103C0.008,-0.032 -0.011,-0.013 -0.013,-0.01C-0.062,0.056 -0.089,0.121 -0.089,0.196C-0.089,0.22 -0.079,0.234 -0.066,0.234C-0.04,0.234 -0.003,0.157 0.058,0.006Z" style="fill:rgb(235,235,235);fill-rule:nonzero;"/>
                </g>
                <g transform="matrix(440.246,0,0,440.246,725.556,1093.47)">
                    <path d="M0.379,-0.294C0.268,-0.151 0.176,-0.085 0.153,-0.085C0.144,-0.085 0.137,-0.095 0.137,-0.11C0.137,-0.185 0.221,-0.227 0.379,-0.294ZM0.303,-0.13C0.29,-0.088 0.28,-0.059 0.28,-0.036C0.28,-0.002 0.304,0.021 0.332,0.021C0.378,0.021 0.436,-0.04 0.533,-0.145L0.532,-0.186C0.468,-0.126 0.427,-0.093 0.396,-0.093C0.379,-0.093 0.369,-0.101 0.369,-0.116C0.369,-0.168 0.442,-0.234 0.442,-0.261C0.442,-0.266 0.439,-0.272 0.436,-0.279L0.42,-0.313L0.437,-0.323C0.449,-0.33 0.454,-0.333 0.454,-0.34C0.454,-0.357 0.431,-0.389 0.409,-0.389C0.401,-0.389 0.364,-0.383 0.309,-0.362C0.25,-0.34 0.201,-0.312 0.156,-0.275C0.096,-0.224 0.063,-0.173 0.063,-0.135C0.063,-0.074 0.118,0.001 0.139,0.001C0.166,0.001 0.22,-0.043 0.303,-0.13Z" style="fill:rgb(235,235,235);fill-rule:nonzero;"/>
                </g>
                <g transform="matrix(440.246,0,0,440.246,915.302,1093.47)">
                    <path d="M0.054,-0.102C0.081,-0.123 0.116,-0.161 0.164,-0.212C0.195,-0.216 0.227,-0.222 0.26,-0.23C0.197,-0.165 0.163,-0.114 0.163,-0.055C0.163,-0.01 0.193,0.019 0.224,0.019C0.264,0.019 0.329,-0.037 0.427,-0.144L0.427,-0.186C0.348,-0.114 0.302,-0.075 0.28,-0.075C0.264,-0.075 0.255,-0.085 0.255,-0.104C0.255,-0.123 0.275,-0.169 0.317,-0.213C0.341,-0.238 0.364,-0.251 0.364,-0.268C0.364,-0.313 0.346,-0.331 0.315,-0.331C0.306,-0.331 0.295,-0.33 0.282,-0.329L0.203,-0.324C0.211,-0.338 0.214,-0.348 0.214,-0.351C0.214,-0.358 0.209,-0.364 0.202,-0.364C0.166,-0.364 0.082,-0.284 0.082,-0.23C0.082,-0.218 0.09,-0.206 0.105,-0.197L0.041,-0.134L0.054,-0.102Z" style="fill:rgb(235,235,235);fill-rule:nonzero;"/>
                </g>
                <g transform="matrix(440.246,0,0,440.246,1056.62,1093.47)">
                    <path d="M0.158,-0.181C0.207,-0.275 0.288,-0.313 0.313,-0.313C0.318,-0.313 0.32,-0.31 0.32,-0.302C0.32,-0.275 0.265,-0.23 0.158,-0.181ZM0.154,-0.141C0.306,-0.177 0.393,-0.269 0.393,-0.323C0.393,-0.351 0.371,-0.365 0.325,-0.365C0.266,-0.365 0.206,-0.338 0.149,-0.284C0.093,-0.231 0.064,-0.173 0.064,-0.112C0.064,-0.028 0.103,0.015 0.171,0.015C0.245,0.015 0.321,-0.039 0.416,-0.143L0.416,-0.185C0.332,-0.104 0.261,-0.066 0.216,-0.066C0.18,-0.066 0.154,-0.092 0.154,-0.136L0.154,-0.141Z" style="fill:rgb(235,235,235);fill-rule:nonzero;"/>
                </g>
                <g transform="matrix(440.246,0,0,440.246,1315.05,1093.47)">
                    <path d="M0.322,-0.261L0.346,-0.297C0.396,-0.303 0.43,-0.312 0.448,-0.32C0.435,-0.327 0.415,-0.328 0.388,-0.328C0.382,-0.328 0.373,-0.327 0.365,-0.326L0.459,-0.458C0.477,-0.483 0.487,-0.504 0.49,-0.526C0.629,-0.518 0.699,-0.491 0.699,-0.447C0.699,-0.416 0.665,-0.36 0.605,-0.316C0.55,-0.276 0.479,-0.254 0.404,-0.254C0.378,-0.254 0.351,-0.256 0.322,-0.261ZM0.245,-0.147C0.276,-0.14 0.306,-0.136 0.337,-0.136C0.451,-0.136 0.562,-0.17 0.642,-0.224C0.719,-0.276 0.76,-0.355 0.76,-0.454C0.76,-0.592 0.658,-0.667 0.477,-0.667C0.391,-0.667 0.292,-0.649 0.22,-0.624C0.192,-0.615 0.186,-0.605 0.174,-0.588C0.128,-0.522 0.106,-0.476 0.106,-0.471C0.106,-0.464 0.107,-0.459 0.111,-0.459C0.13,-0.459 0.243,-0.516 0.442,-0.527C0.365,-0.44 0.311,-0.369 0.276,-0.318C0.19,-0.306 0.14,-0.267 0.14,-0.222C0.14,-0.2 0.154,-0.186 0.179,-0.167C0.112,-0.064 0.088,0.012 0.088,0.03C0.088,0.051 0.098,0.063 0.112,0.063C0.134,0.063 0.151,0.042 0.176,0.003C0.194,-0.026 0.204,-0.045 0.204,-0.056C0.204,-0.062 0.202,-0.064 0.197,-0.068L0.245,-0.147Z" style="fill:rgb(235,235,235);fill-rule:nonzero;"/>
                </g>
                <g transform="matrix(440.246,0,0,440.246,1601.65,1093.47)">
                    <path d="M0.379,-0.294C0.268,-0.151 0.176,-0.085 0.153,-0.085C0.144,-0.085 0.137,-0.095 0.137,-0.11C0.137,-0.185 0.221,-0.227 0.379,-0.294ZM0.303,-0.13C0.29,-0.088 0.28,-0.059 0.28,-0.036C0.28,-0.002 0.304,0.021 0.332,0.021C0.378,0.021 0.436,-0.04 0.533,-0.145L0.532,-0.186C0.468,-0.126 0.427,-0.093 0.396,-0.093C0.379,-0.093 0.369,-0.101 0.369,-0.116C0.369,-0.168 0.442,-0.234 0.442,-0.261C0.442,-0.266 0.439,-0.272 0.436,-0.279L0.42,-0.313L0.437,-0.323C0.449,-0.33 0.454,-0.333 0.454,-0.34C0.454,-0.357 0.431,-0.389 0.409,-0.389C0.401,-0.389 0.364,-0.383 0.309,-0.362C0.25,-0.34 0.201,-0.312 0.156,-0.275C0.096,-0.224 0.063,-0.173 0.063,-0.135C0.063,-0.074 0.118,0.001 0.139,0.001C0.166,0.001 0.22,-0.043 0.303,-0.13Z" style="fill:rgb(235,235,235);fill-rule:nonzero;"/>
                </g>
                <g transform="matrix(440.246,0,0,440.246,1791.39,1093.47)">
                    <path d="M0.054,-0.102C0.081,-0.123 0.116,-0.161 0.164,-0.212C0.195,-0.216 0.227,-0.222 0.26,-0.23C0.197,-0.165 0.163,-0.114 0.163,-0.055C0.163,-0.01 0.193,0.019 0.224,0.019C0.264,0.019 0.329,-0.037 0.427,-0.144L0.427,-0.186C0.348,-0.114 0.302,-0.075 0.28,-0.075C0.264,-0.075 0.255,-0.085 0.255,-0.104C0.255,-0.123 0.275,-0.169 0.317,-0.213C0.341,-0.238 0.364,-0.251 0.364,-0.268C0.364,-0.313 0.346,-0.331 0.315,-0.331C0.306,-0.331 0.295,-0.33 0.282,-0.329L0.203,-0.324C0.211,-0.338 0.214,-0.348 0.214,-0.351C0.214,-0.358 0.209,-0.364 0.202,-0.364C0.166,-0.364 0.082,-0.284 0.082,-0.23C0.082,-0.218 0.09,-0.206 0.105,-0.197L0.041,-0.134L0.054,-0.102Z" style="fill:rgb(235,235,235);fill-rule:nonzero;"/>
                </g>
                <g transform="matrix(440.246,0,0,440.246,1932.71,1093.47)">
                    <path d="M0.115,-0.148C0.091,-0.104 0.081,-0.065 0.081,-0.035C0.081,0.003 0.102,0.025 0.139,0.025C0.189,0.025 0.272,-0.03 0.377,-0.143L0.376,-0.184C0.287,-0.104 0.231,-0.064 0.204,-0.064C0.188,-0.064 0.179,-0.073 0.179,-0.092C0.179,-0.137 0.204,-0.214 0.265,-0.29C0.272,-0.289 0.281,-0.289 0.294,-0.289C0.318,-0.289 0.331,-0.294 0.35,-0.311C0.39,-0.348 0.409,-0.386 0.409,-0.389C0.409,-0.398 0.392,-0.405 0.359,-0.407L0.399,-0.454C0.407,-0.463 0.411,-0.47 0.411,-0.479C0.411,-0.486 0.401,-0.493 0.391,-0.493C0.331,-0.493 0.317,-0.465 0.275,-0.408C0.227,-0.408 0.195,-0.403 0.178,-0.391C0.153,-0.373 0.12,-0.32 0.12,-0.309C0.12,-0.305 0.123,-0.303 0.129,-0.303L0.148,-0.303C0.163,-0.303 0.18,-0.301 0.198,-0.298C0.164,-0.254 0.126,-0.211 0.085,-0.167L0.086,-0.127C0.095,-0.134 0.105,-0.141 0.115,-0.148Z" style="fill:rgb(235,235,235);fill-rule:nonzero;"/>
                </g>
                <g transform="matrix(440.246,0,0,440.246,2052.02,1093.47)">
                    <path d="M0.104,-0.139C0.15,-0.182 0.195,-0.222 0.234,-0.264C0.242,-0.235 0.246,-0.21 0.246,-0.188C0.246,-0.142 0.228,-0.114 0.184,-0.084C0.161,-0.121 0.14,-0.14 0.112,-0.14C0.11,-0.14 0.107,-0.139 0.104,-0.139ZM0.434,-0.184C0.346,-0.101 0.281,-0.06 0.241,-0.06C0.232,-0.06 0.223,-0.062 0.211,-0.065C0.281,-0.085 0.339,-0.166 0.339,-0.244C0.339,-0.296 0.321,-0.333 0.321,-0.353C0.321,-0.357 0.323,-0.363 0.323,-0.37C0.323,-0.381 0.319,-0.386 0.306,-0.386C0.264,-0.386 0.247,-0.37 0.238,-0.325C0.214,-0.295 0.166,-0.245 0.093,-0.173L0.093,-0.137C0.072,-0.128 0.06,-0.112 0.06,-0.091C0.06,-0.039 0.128,0.02 0.19,0.02C0.25,0.02 0.332,-0.034 0.435,-0.143L0.434,-0.184Z" style="fill:rgb(235,235,235);fill-rule:nonzero;"/>
                </g>
            </g>
        </g>
    </g>
</svg>
